<svg viewBox="0 0 720 370" xmlns="http://www.w3.org/2000/svg"
     width="720" height="370"
     font-family="-apple-system, BlinkMacSystemFont, Segoe UI, Roboto, Helvetica, Arial, sans-serif">
  <defs>
    <clipPath id="reveal">
      <rect x="52" y="0" height="370">
        <!-- 8s cycle: 0.25s fade-in, 3.5s draw, 3s hold, 0.75s fade-out, 0.5s blank -->
        <animate attributeName="width" dur="8s" repeatCount="indefinite" calcMode="linear"
                 values="0;0;608;608;608;0;0"
                 keyTimes="0;0.03;0.47;0.84;0.94;0.941;1" />
      </rect>
    </clipPath>
  </defs>

  <line x1="52" y1="304.7" x2="660" y2="304.7" stroke="#e6e6e6" stroke-width="0.5" />
  <text x="44" y="308.7" text-anchor="end" font-size="11" fill="#757575">$1</text>
  <line x1="52" y1="206.0" x2="660" y2="206.0" stroke="#e6e6e6" stroke-width="0.5" />
  <text x="44" y="210.0" text-anchor="end" font-size="11" fill="#757575">$10</text>
  <line x1="52" y1="107.4" x2="660" y2="107.4" stroke="#e6e6e6" stroke-width="0.5" />
  <text x="44" y="111.4" text-anchor="end" font-size="11" fill="#757575">$100</text>
  <line x1="52.0" y1="320" x2="52.0" y2="325" stroke="#ddd" stroke-width="1" />
  <text x="52.0" y="338" text-anchor="middle" font-size="11" fill="#757575">2010</text>
  <line x1="125.3" y1="320" x2="125.3" y2="325" stroke="#ddd" stroke-width="1" />
  <text x="125.3" y="338" text-anchor="middle" font-size="11" fill="#757575">2012</text>
  <line x1="202.2" y1="320" x2="202.2" y2="325" stroke="#ddd" stroke-width="1" />
  <text x="202.2" y="338" text-anchor="middle" font-size="11" fill="#757575">2014</text>
  <line x1="279.1" y1="320" x2="279.1" y2="325" stroke="#ddd" stroke-width="1" />
  <text x="279.1" y="338" text-anchor="middle" font-size="11" fill="#757575">2016</text>
  <line x1="356.0" y1="320" x2="356.0" y2="325" stroke="#ddd" stroke-width="1" />
  <text x="356.0" y="338" text-anchor="middle" font-size="11" fill="#757575">2018</text>
  <line x1="432.9" y1="320" x2="432.9" y2="325" stroke="#ddd" stroke-width="1" />
  <text x="432.9" y="338" text-anchor="middle" font-size="11" fill="#757575">2020</text>
  <line x1="509.8" y1="320" x2="509.8" y2="325" stroke="#ddd" stroke-width="1" />
  <text x="509.8" y="338" text-anchor="middle" font-size="11" fill="#757575">2022</text>
  <line x1="583.1" y1="320" x2="583.1" y2="325" stroke="#ddd" stroke-width="1" />
  <text x="583.1" y="338" text-anchor="middle" font-size="11" fill="#757575">2024</text>
  <text x="14" y="172" text-anchor="middle" font-size="11" fill="#757575" transform="rotate(-90 14 172)">growth of $1</text>
  <line x1="52" y1="24" x2="52" y2="320" stroke="#ddd" stroke-width="1" />
  <line x1="52" y1="320" x2="660" y2="320" stroke="#ddd" stroke-width="1" />
  <line x1="52" y1="304.7" x2="660" y2="304.7" stroke="#ccc" stroke-width="1" stroke-dasharray="4,3" />
  <!-- Animated content: fades out before clip resets -->
  <g>
    <animate attributeName="opacity" dur="8s" repeatCount="indefinite"
             values="0;1;1;0;0" keyTimes="0;0.03;0.84;0.94;1" />
  <path d="M52.0,304.5 L55.7,293.9 L59.3,286.1 L63.0,300.7 L66.7,310.1 L70.3,298.2 L74.0,299.2 L77.6,286.4 L81.3,284.1 L85.0,278.7 L88.6,276.6 L92.3,271.8 L96.0,274.2 L99.6,271.1 L103.3,281.8 L106.9,269.0 L110.6,286.4 L114.3,288.5 L117.9,277.1 L121.6,279.7 L125.3,277.0 L128.9,266.1 L132.6,259.0 L136.2,258.8 L139.9,273.0 L143.6,265.6 L147.2,260.6 L150.9,254.5 L154.6,262.9 L158.2,264.8 L161.9,266.5 L165.5,259.1 L169.2,257.2 L172.9,254.9 L176.5,247.4 L180.2,254.2 L183.9,245.6 L187.5,245.6 L191.2,238.8 L194.8,234.1 L198.5,230.6 L202.2,225.9 L205.8,223.2 L209.5,226.8 L213.2,226.6 L216.8,219.1 L220.5,215.5 L224.1,212.9 L227.8,209.3 L231.5,211.6 L235.1,202.4 L238.8,206.0 L242.5,206.1 L246.1,203.6 L249.8,202.7 L253.4,197.6 L257.1,198.9 L260.8,196.1 L264.4,209.2 L268.1,203.9 L271.8,200.3 L275.4,200.4 L279.1,208.4 L282.7,209.6 L286.4,201.2 L290.1,207.1 L293.7,203.2 L297.4,200.1 L301.1,194.0 L304.7,192.7 L308.4,194.2 L312.0,196.0 L315.7,189.0 L319.4,183.5 L323.0,179.0 L326.7,178.2 L330.4,170.2 L334.0,173.5 L337.7,168.1 L341.3,167.8 L345.0,164.0 L348.7,159.4 L352.3,156.4 L356.0,146.0 L359.7,150.7 L363.3,158.9 L367.0,149.2 L370.7,143.8 L374.3,142.3 L378.0,140.0 L381.6,137.6 L385.3,150.9 L389.0,158.3 L392.6,159.9 L396.3,151.5 L400.0,146.7 L403.6,138.3 L407.3,150.6 L410.9,138.6 L414.6,142.1 L418.3,138.6 L421.9,139.2 L425.6,132.7 L429.3,125.2 L432.9,122.2 L436.6,130.6 L440.2,144.2 L443.9,131.8 L447.6,120.9 L451.2,115.5 L454.9,98.6 L458.6,108.4 L462.2,100.3 L465.9,97.6 L469.5,93.4 L473.2,86.1 L476.9,93.2 L480.5,84.8 L484.2,86.2 L487.9,76.8 L491.5,74.2 L495.2,72.6 L498.8,72.7 L502.5,67.2 L506.2,65.6 L509.8,80.2 L513.5,94.2 L517.2,89.7 L520.8,112.6 L524.5,111.4 L528.1,103.5 L531.8,112.9 L535.5,125.9 L539.1,118.9 L542.8,125.9 L546.5,122.3 L550.1,119.0 L553.8,107.1 L557.4,106.6 L561.1,94.9 L564.8,86.4 L568.4,94.1 L572.1,94.3 L575.8,99.3 L579.4,84.0 L583.1,81.7 L586.7,69.5 L590.4,70.8 L594.1,76.8 L597.7,64.3 L601.4,58.5 L605.1,67.7 L608.7,68.4 L612.4,56.4 L616.0,56.0 L619.7,50.7 L623.4,48.2 L627.0,54.0 L630.7,79.3 L634.4,63.2 L638.0,53.7 L641.7,45.6 L645.3,43.4 L649.0,38.1 L652.7,31.5 L656.3,32.7 L660.0,34.0 L660.0,66.1 L656.3,64.6 L652.7,62.9 L649.0,69.0 L645.3,73.9 L641.7,75.7 L638.0,83.3 L634.4,92.3 L630.7,107.8 L627.0,82.2 L623.4,75.9 L619.7,77.9 L616.0,82.7 L612.4,82.7 L608.7,94.2 L605.1,92.9 L601.4,83.1 L597.7,88.5 L594.1,100.4 L590.4,93.9 L586.7,92.1 L583.1,103.7 L579.4,105.6 L575.8,120.4 L572.1,114.8 L568.4,114.1 L564.8,105.9 L561.1,113.9 L557.4,125.1 L553.8,125.0 L550.1,136.5 L546.5,139.3 L542.8,142.4 L539.1,135.0 L535.5,141.4 L531.8,128.0 L528.1,118.4 L524.5,125.9 L520.8,126.9 L517.2,103.7 L513.5,108.2 L509.8,94.2 L506.2,79.3 L502.5,80.7 L498.8,86.3 L495.2,86.0 L491.5,87.5 L487.9,90.1 L484.2,99.4 L480.5,97.9 L476.9,106.2 L473.2,99.0 L469.5,106.2 L465.9,110.3 L462.2,113.0 L458.6,121.0 L454.9,111.2 L451.2,128.2 L447.6,133.5 L443.9,144.3 L440.2,156.6 L436.6,142.1 L432.9,133.6 L429.3,136.3 L425.6,143.6 L421.9,149.9 L418.3,149.1 L414.6,152.4 L410.9,148.6 L407.3,160.3 L403.6,147.8 L400.0,155.8 L396.3,160.5 L392.6,168.5 L389.0,166.6 L385.3,158.8 L381.6,145.4 L378.0,147.6 L374.3,149.6 L370.7,150.8 L367.0,156.1 L363.3,165.6 L359.7,157.1 L356.0,152.3 L352.3,162.5 L348.7,165.3 L345.0,169.8 L341.3,173.4 L337.7,173.6 L334.0,178.9 L330.4,175.4 L326.7,183.2 L323.0,183.9 L319.4,188.3 L315.7,193.7 L312.0,200.7 L308.4,198.6 L304.7,197.2 L301.1,198.4 L297.4,204.4 L293.7,207.4 L290.1,211.2 L286.4,205.2 L282.7,213.6 L279.1,212.4 L275.4,204.0 L271.8,204.1 L268.1,207.7 L264.4,212.8 L260.8,199.6 L257.1,202.3 L253.4,201.0 L249.8,206.0 L246.1,206.9 L242.5,209.3 L238.8,209.1 L235.1,205.4 L231.5,214.6 L227.8,212.2 L224.1,215.8 L220.5,218.3 L216.8,221.9 L213.2,229.2 L209.5,229.4 L205.8,225.8 L202.2,228.4 L198.5,233.0 L194.8,236.4 L191.2,241.1 L187.5,247.8 L183.9,247.8 L180.2,256.2 L176.5,249.4 L172.9,256.8 L169.2,259.2 L165.5,261.0 L161.9,268.3 L158.2,266.5 L154.6,264.6 L150.9,256.2 L147.2,262.1 L143.6,267.3 L139.9,274.6 L136.2,260.4 L132.6,260.5 L128.9,267.5 L125.3,278.4 L121.6,281.0 L117.9,278.3 L114.3,289.5 L110.6,287.5 L106.9,270.0 L103.3,282.7 L99.6,272.0 L96.0,275.1 L92.3,272.6 L88.6,277.3 L85.0,279.4 L81.3,284.8 L77.6,286.9 L74.0,299.9 L70.3,298.7 L66.7,310.4 L63.0,300.8 L59.3,286.2 L55.7,294.0 L52.0,304.5 Z" fill="rgba(200,160,100,0.12)" clip-path="url(#reveal)" />
  <polyline points="52.0,304.6 55.7,301.1 59.3,298.4 63.0,302.8 66.7,305.7 70.3,301.6 74.0,301.7 77.6,297.3 81.3,296.5 85.0,294.6 88.6,293.9 92.3,292.2 96.0,292.9 99.6,291.8 103.3,295.2 106.9,290.9 110.6,295.8 114.3,296.2 117.9,292.1 121.6,292.7 125.3,291.6 128.9,287.9 132.6,285.6 136.2,285.4 139.9,289.9 143.6,287.3 147.2,285.5 150.9,283.4 154.6,286.1 158.2,286.7 161.9,287.2 165.5,284.6 169.2,283.9 172.9,283.1 176.5,280.5 180.2,282.7 183.9,279.8 187.5,279.7 191.2,277.4 194.8,275.7 198.5,274.6 202.2,272.9 205.8,271.9 209.5,273.0 213.2,272.8 216.8,270.3 220.5,269.1 224.1,268.1 227.8,266.9 231.5,267.5 235.1,264.4 238.8,265.5 242.5,265.4 246.1,264.5 249.8,264.1 253.4,262.4 257.1,262.7 260.8,261.7 264.4,265.6 268.1,263.7 271.8,262.4 275.4,262.3 279.1,264.7 282.7,264.9 286.4,261.9 290.1,263.9 293.7,262.5 297.4,261.3 301.1,259.2 304.7,258.7 308.4,259.2 312.0,259.7 315.7,257.3 319.4,255.5 323.0,253.9 326.7,253.7 330.4,250.9 334.0,251.9 337.7,250.1 341.3,249.9 345.0,248.6 348.7,247.0 352.3,246.0 356.0,242.5 359.7,243.7 363.3,246.1 367.0,242.8 370.7,240.9 374.3,240.3 378.0,239.5 381.6,238.7 385.3,242.6 389.0,244.7 392.6,244.8 396.3,241.9 400.0,240.2 403.6,237.4 407.3,241.3 410.9,237.2 414.6,238.2 418.3,236.8 421.9,236.9 425.6,234.7 429.3,232.2 432.9,231.1 436.6,233.3 440.2,234.8 443.9,230.2 447.6,226.4 451.2,224.4 454.9,218.6 458.6,221.3 462.2,218.3 465.9,217.2 469.5,215.8 473.2,213.2 476.9,215.1 480.5,212.2 484.2,212.6 487.9,209.4 491.5,208.5 495.2,207.9 498.8,207.8 502.5,205.9 506.2,205.1 509.8,209.6 513.5,213.9 517.2,212.0 520.8,218.8 524.5,217.8 528.1,214.9 531.8,217.8 535.5,221.7 539.1,218.7 542.8,220.8 546.5,219.4 550.1,218.1 553.8,213.9 557.4,213.7 561.1,209.7 564.8,206.7 568.4,209.2 572.1,209.1 575.8,210.7 579.4,205.5 583.1,204.6 586.7,200.5 590.4,200.8 594.1,202.7 597.7,198.4 601.4,196.4 605.1,199.2 608.7,199.2 612.4,195.1 616.0,194.8 619.7,193.0 623.4,192.0 627.0,193.8 630.7,201.6 634.4,195.4 638.0,192.1 641.7,189.4 645.3,188.6 649.0,186.8 652.7,184.5 656.3,184.7 660.0,185.1" fill="none" stroke="#aaa" stroke-width="1.5" stroke-dasharray="4,3" clip-path="url(#reveal)" />
  <polyline points="52.0,304.5 55.7,293.9 59.3,286.1 63.0,300.7 66.7,310.1 70.3,298.2 74.0,299.2 77.6,286.4 81.3,284.1 85.0,278.7 88.6,276.6 92.3,271.8 96.0,274.2 99.6,271.1 103.3,281.8 106.9,269.0 110.6,286.4 114.3,288.5 117.9,277.1 121.6,279.7 125.3,277.0 128.9,266.1 132.6,259.0 136.2,258.8 139.9,273.0 143.6,265.6 147.2,260.6 150.9,254.5 154.6,262.9 158.2,264.8 161.9,266.5 165.5,259.1 169.2,257.2 172.9,254.9 176.5,247.4 180.2,254.2 183.9,245.6 187.5,245.6 191.2,238.8 194.8,234.1 198.5,230.6 202.2,225.9 205.8,223.2 209.5,226.8 213.2,226.6 216.8,219.1 220.5,215.5 224.1,212.9 227.8,209.3 231.5,211.6 235.1,202.4 238.8,206.0 242.5,206.1 246.1,203.6 249.8,202.7 253.4,197.6 257.1,198.9 260.8,196.1 264.4,209.2 268.1,203.9 271.8,200.3 275.4,200.4 279.1,208.4 282.7,209.6 286.4,201.2 290.1,207.1 293.7,203.2 297.4,200.1 301.1,194.0 304.7,192.7 308.4,194.2 312.0,196.0 315.7,189.0 319.4,183.5 323.0,179.0 326.7,178.2 330.4,170.2 334.0,173.5 337.7,168.1 341.3,167.8 345.0,164.0 348.7,159.4 352.3,156.4 356.0,146.0 359.7,150.7 363.3,158.9 367.0,149.2 370.7,143.8 374.3,142.3 378.0,140.0 381.6,137.6 385.3,150.9 389.0,158.3 392.6,159.9 396.3,151.5 400.0,146.7 403.6,138.3 407.3,150.6 410.9,138.6 414.6,142.1 418.3,138.6 421.9,139.2 425.6,132.7 429.3,125.2 432.9,122.2 436.6,130.6 440.2,144.2 443.9,131.8 447.6,120.9 451.2,115.5 454.9,98.6 458.6,108.4 462.2,100.3 465.9,97.6 469.5,93.4 473.2,86.1 476.9,93.2 480.5,84.8 484.2,86.2 487.9,76.8 491.5,74.2 495.2,72.6 498.8,72.7 502.5,67.2 506.2,65.6 509.8,80.2 513.5,94.2 517.2,89.7 520.8,112.6 524.5,111.4 528.1,103.5 531.8,112.9 535.5,125.9 539.1,118.9 542.8,125.9 546.5,122.3 550.1,119.0 553.8,107.1 557.4,106.6 561.1,94.9 564.8,86.4 568.4,94.1 572.1,94.3 575.8,99.3 579.4,84.0 583.1,81.7 586.7,69.5 590.4,70.8 594.1,76.8 597.7,64.3 601.4,58.5 605.1,67.7 608.7,68.4 612.4,56.4 616.0,56.0 619.7,50.7 623.4,48.2 627.0,54.0 630.7,79.3 634.4,63.2 638.0,53.7 641.7,45.6 645.3,43.4 649.0,38.1 652.7,31.5 656.3,32.7 660.0,34.0" fill="none" stroke="#4a9a6a" stroke-width="2" clip-path="url(#reveal)" />
  <polyline points="52.0,304.5 55.7,294.0 59.3,286.2 63.0,300.8 66.7,310.4 70.3,298.7 74.0,299.9 77.6,286.9 81.3,284.8 85.0,279.4 88.6,277.3 92.3,272.6 96.0,275.1 99.6,272.0 103.3,282.7 106.9,270.0 110.6,287.5 114.3,289.5 117.9,278.3 121.6,281.0 125.3,278.4 128.9,267.5 132.6,260.5 136.2,260.4 139.9,274.6 143.6,267.3 147.2,262.1 150.9,256.2 154.6,264.6 158.2,266.5 161.9,268.3 165.5,261.0 169.2,259.2 172.9,256.8 176.5,249.4 180.2,256.2 183.9,247.8 187.5,247.8 191.2,241.1 194.8,236.4 198.5,233.0 202.2,228.4 205.8,225.8 209.5,229.4 213.2,229.2 216.8,221.9 220.5,218.3 224.1,215.8 227.8,212.2 231.5,214.6 235.1,205.4 238.8,209.1 242.5,209.3 246.1,206.9 249.8,206.0 253.4,201.0 257.1,202.3 260.8,199.6 264.4,212.8 268.1,207.7 271.8,204.1 275.4,204.0 279.1,212.4 282.7,213.6 286.4,205.2 290.1,211.2 293.7,207.4 297.4,204.4 301.1,198.4 304.7,197.2 308.4,198.6 312.0,200.7 315.7,193.7 319.4,188.3 323.0,183.9 326.7,183.2 330.4,175.4 334.0,178.9 337.7,173.6 341.3,173.4 345.0,169.8 348.7,165.3 352.3,162.5 356.0,152.3 359.7,157.1 363.3,165.6 367.0,156.1 370.7,150.8 374.3,149.6 378.0,147.6 381.6,145.4 385.3,158.8 389.0,166.6 392.6,168.5 396.3,160.5 400.0,155.8 403.6,147.8 407.3,160.3 410.9,148.6 414.6,152.4 418.3,149.1 421.9,149.9 425.6,143.6 429.3,136.3 432.9,133.6 436.6,142.1 440.2,156.6 443.9,144.3 447.6,133.5 451.2,128.2 454.9,111.2 458.6,121.0 462.2,113.0 465.9,110.3 469.5,106.2 473.2,99.0 476.9,106.2 480.5,97.9 484.2,99.4 487.9,90.1 491.5,87.5 495.2,86.0 498.8,86.3 502.5,80.7 506.2,79.3 509.8,94.2 513.5,108.2 517.2,103.7 520.8,126.9 524.5,125.9 528.1,118.4 531.8,128.0 535.5,141.4 539.1,135.0 542.8,142.4 546.5,139.3 550.1,136.5 553.8,125.0 557.4,125.1 561.1,113.9 564.8,105.9 568.4,114.1 572.1,114.8 575.8,120.4 579.4,105.6 583.1,103.7 586.7,92.1 590.4,93.9 594.1,100.4 597.7,88.5 601.4,83.1 605.1,92.9 608.7,94.2 612.4,82.7 616.0,82.7 619.7,77.9 623.4,75.9 627.0,82.2 630.7,107.8 634.4,92.3 638.0,83.3 641.7,75.7 645.3,73.9 649.0,69.0 652.7,62.9 656.3,64.6 660.0,66.1" fill="none" stroke="#c48840" stroke-width="2" clip-path="url(#reveal)" />
  <g>
    <animate attributeName="opacity" dur="8s" repeatCount="indefinite"
             values="0;0;1;1;0;0" keyTimes="0;0.47;0.50;0.81;0.84;1" />
    <text x="668.0" y="39.0" font-size="12" font-weight="600" fill="#4a9a6a">$554</text>
    <text x="668.0" y="71.1" font-size="12" font-weight="600" fill="#c48840">$262</text>
    <text x="668.0" y="190.1" font-size="12" font-weight="600" fill="#999">$16</text>
  </g>
  <g>
    <animate attributeName="opacity" dur="8s" repeatCount="indefinite"
             values="0;0;1;1;0;0" keyTimes="0;0.50;0.53;0.81;0.84;1" />
    <text x="489.8" y="54.0" text-anchor="middle" font-size="11" fill="#a08050" font-style="italic">financing drag</text>
  </g>
  </g><!-- end animated content wrapper -->
  <g transform="translate(62, 36)">
    <line x1="0" y1="0" x2="16" y2="0" stroke="#aaa" stroke-width="1.5" stroke-dasharray="4,3" />
    <text x="22" y="4" font-size="11" fill="#757575">QQQ (1x)</text>
    <line x1="0" y1="16" x2="16" y2="16" stroke="#4a9a6a" stroke-width="2" />
    <text x="22" y="20" font-size="11" fill="#757575">Zero-premium 3x</text>
    <line x1="0" y1="32" x2="16" y2="32" stroke="#c48840" stroke-width="2" />
    <text x="22" y="36" font-size="11" fill="#757575">TQQQ (actual 3x)</text>
  </g>
</svg>