<svg viewBox="0 0 720 370" xmlns="http://www.w3.org/2000/svg"
     width="720" height="370"
     font-family="-apple-system, BlinkMacSystemFont, Segoe UI, Roboto, Helvetica, Arial, sans-serif">
  <defs>
    <clipPath id="btc-reveal">
      <rect x="52" y="0" height="370">
        <!-- 20s cycle: 0.5s fade-in, 10s draw, 7s hold, 1.5s fade-out, 1s blank -->
        <animate attributeName="width" dur="20s" repeatCount="indefinite" calcMode="linear"
                 values="0;0;608;608;608;0;0"
                 keyTimes="0;0.025;0.525;0.875;0.95;0.951;1" />
      </rect>
    </clipPath>
  </defs>

  <line x1="52" y1="300.8" x2="660" y2="300.8" stroke="#e6e6e6" stroke-width="0.5" />
  <text x="44" y="304.8" text-anchor="end" font-size="11" fill="#757575">$0.5</text>
  <line x1="52" y1="274.8" x2="660" y2="274.8" stroke="#e6e6e6" stroke-width="0.5" />
  <text x="44" y="278.8" text-anchor="end" font-size="11" fill="#757575">$1</text>
  <line x1="52" y1="214.4" x2="660" y2="214.4" stroke="#e6e6e6" stroke-width="0.5" />
  <text x="44" y="218.4" text-anchor="end" font-size="11" fill="#757575">$5</text>
  <line x1="52" y1="188.4" x2="660" y2="188.4" stroke="#e6e6e6" stroke-width="0.5" />
  <text x="44" y="192.4" text-anchor="end" font-size="11" fill="#757575">$10</text>
  <line x1="52" y1="128.0" x2="660" y2="128.0" stroke="#e6e6e6" stroke-width="0.5" />
  <text x="44" y="132.0" text-anchor="end" font-size="11" fill="#757575">$50</text>
  <line x1="52" y1="102.0" x2="660" y2="102.0" stroke="#e6e6e6" stroke-width="0.5" />
  <text x="44" y="106.0" text-anchor="end" font-size="11" fill="#757575">$100</text>
  <line x1="52" y1="41.6" x2="660" y2="41.6" stroke="#e6e6e6" stroke-width="0.5" />
  <text x="44" y="45.6" text-anchor="end" font-size="11" fill="#757575">$500</text>
  <line x1="52" y1="274.8" x2="660" y2="274.8" stroke="#ccc" stroke-width="1" stroke-dasharray="4,3" />

  <line x1="106.9" y1="320" x2="106.9" y2="325" stroke="#ddd" stroke-width="1" />
  <text x="106.9" y="338" text-anchor="middle" font-size="11" fill="#757575">2016</text>
  <line x1="217.7" y1="320" x2="217.7" y2="325" stroke="#ddd" stroke-width="1" />
  <text x="217.7" y="338" text-anchor="middle" font-size="11" fill="#757575">2018</text>
  <line x1="328.3" y1="320" x2="328.3" y2="325" stroke="#ddd" stroke-width="1" />
  <text x="328.3" y="338" text-anchor="middle" font-size="11" fill="#757575">2020</text>
  <line x1="439.1" y1="320" x2="439.1" y2="325" stroke="#ddd" stroke-width="1" />
  <text x="439.1" y="338" text-anchor="middle" font-size="11" fill="#757575">2022</text>
  <line x1="549.8" y1="320" x2="549.8" y2="325" stroke="#ddd" stroke-width="1" />
  <text x="549.8" y="338" text-anchor="middle" font-size="11" fill="#757575">2024</text>

  <text x="14" y="172" text-anchor="middle" font-size="11" fill="#757575" transform="rotate(-90 14 172)">growth of $1</text>
  <line x1="52" y1="24" x2="52" y2="320" stroke="#ddd" stroke-width="1" />
  <line x1="52" y1="320" x2="660" y2="320" stroke="#ddd" stroke-width="1" />
  <!-- Animated content -->
  <g>
    <animate attributeName="opacity" dur="20s" repeatCount="indefinite"
             values="0;1;1;0;0" keyTimes="0;0.025;0.875;0.95;1" />
  <polyline points="52.0,281.4 53.1,280.9 54.1,289.9 55.2,282.7 56.2,287.2 57.3,287.7 58.4,285.6 59.4,285.6 60.5,281.8 61.5,280.0 62.6,278.4 63.7,280.9 64.7,284.6 65.8,281.8 66.8,285.6 67.9,287.7 68.9,288.2 70.0,285.1 71.1,285.1 72.1,285.6 73.2,284.6 74.2,286.6 75.3,287.7 76.4,286.1 77.4,284.1 78.5,283.7 79.5,280.0 80.6,275.2 81.7,280.0 82.7,277.5 83.8,278.8 84.8,281.4 85.9,282.3 87.0,286.6 88.0,286.6 89.1,285.1 90.1,286.6 91.2,286.1 92.3,286.1 93.3,285.1 94.4,283.7 95.4,281.8 96.5,278.8 97.5,273.4 98.6,268.3 99.7,274.1 100.7,273.7 101.8,268.6 102.8,266.8 103.9,262.7 105.0,261.9 106.0,263.6 107.1,263.0 108.1,261.4 109.2,267.4 110.3,265.6 111.3,268.9 112.4,268.0 113.4,265.0 114.5,262.2 115.6,262.7 116.6,265.0 117.7,264.4 118.7,264.4 119.8,263.3 120.9,263.8 121.9,263.8 123.0,263.3 124.0,260.6 125.1,261.1 126.1,260.6 127.2,260.6 128.3,262.2 129.3,255.6 130.4,252.1 131.4,246.3 132.5,241.5 133.6,248.8 134.6,247.0 135.7,247.5 136.7,245.9 137.8,247.0 138.9,249.0 139.9,250.9 141.0,252.4 142.0,251.7 143.1,252.1 144.2,250.0 145.2,250.2 146.3,250.0 147.3,250.5 148.4,250.0 149.4,249.6 150.5,248.1 151.6,247.2 152.6,244.7 153.7,244.2 154.7,244.7 155.8,243.1 156.9,243.1 157.9,241.0 159.0,241.2 160.0,240.1 161.1,235.5 162.2,231.4 163.2,234.9 164.3,238.7 165.3,234.4 166.4,234.5 167.5,230.4 168.5,231.4 169.6,229.7 170.6,225.6 171.7,222.5 172.8,223.9 173.8,230.0 174.9,232.6 175.9,227.7 177.0,224.9 178.0,225.1 179.1,224.3 180.2,220.2 181.2,213.8 182.3,209.1 183.3,204.6 184.4,202.6 185.5,196.8 186.5,190.7 187.6,196.3 188.6,195.7 189.7,196.9 190.8,196.8 191.8,206.7 192.9,193.7 193.9,193.3 195.0,187.6 196.1,178.7 197.1,178.6 198.2,175.9 199.2,174.3 200.3,178.2 201.4,183.5 202.4,182.5 203.5,175.8 204.5,174.0 205.6,166.2 206.6,164.1 207.7,163.2 208.8,156.3 209.8,164.5 210.9,153.2 211.9,147.6 213.0,140.3 214.1,128.7 215.1,120.6 216.2,132.6 217.2,131.9 218.3,126.3 219.4,133.0 220.4,139.4 221.5,138.8 222.5,152.1 223.6,152.8 224.7,143.0 225.7,146.3 226.8,139.7 227.8,146.6 228.9,152.3 230.0,151.1 231.0,159.2 232.1,158.2 233.1,151.9 234.2,149.8 235.2,147.2 236.3,146.3 237.4,150.1 238.4,151.0 239.5,156.4 240.5,154.7 241.6,159.5 242.7,161.2 243.7,163.1 244.8,161.8 245.8,159.6 246.9,162.0 248.0,156.2 249.0,152.4 250.1,158.0 251.1,162.2 252.2,161.1 253.3,160.0 254.3,156.9 255.4,162.3 256.4,161.1 257.5,160.0 258.6,160.4 259.6,160.6 260.7,162.4 261.7,161.3 262.8,161.2 263.8,161.9 264.9,161.7 266.0,166.6 267.0,179.3 268.1,178.1 269.1,183.2 270.2,187.1 271.3,179.4 272.3,180.7 273.4,178.7 274.4,183.8 275.5,183.3 276.6,183.5 277.6,184.8 278.7,182.4 279.7,182.6 280.8,181.2 281.9,180.8 282.9,179.8 284.0,179.1 285.0,179.2 286.1,178.4 287.1,169.5 288.2,169.8 289.3,168.7 290.3,168.9 291.4,165.5 292.4,158.5 293.5,152.4 294.6,150.3 295.6,150.0 296.7,154.9 297.7,149.0 298.8,141.9 299.9,142.0 300.9,139.9 302.0,144.0 303.0,142.8 304.1,146.7 305.2,141.5 306.2,139.7 307.3,143.7 308.3,144.5 309.4,145.9 310.5,143.4 311.5,143.7 312.6,144.7 313.6,152.9 314.7,153.4 315.7,151.9 316.8,152.3 317.9,146.7 318.9,148.0 320.0,148.7 321.0,150.7 322.1,158.1 323.2,156.2 324.2,155.5 325.3,157.6 326.3,155.7 327.4,156.2 328.5,156.2 329.5,152.5 330.6,150.2 331.6,150.7 332.7,147.5 333.8,144.6 334.8,145.2 335.9,145.3 336.9,150.8 338.0,152.9 339.1,168.2 340.1,165.2 341.2,164.6 342.2,159.5 343.3,158.5 344.3,157.4 345.4,154.9 346.5,149.4 347.5,150.0 348.6,146.3 349.6,149.8 350.7,147.1 351.8,145.9 352.8,147.4 353.9,147.7 354.9,148.3 356.0,148.6 357.1,147.8 358.1,148.2 359.2,145.3 360.2,141.2 361.3,139.2 362.4,138.5 363.4,139.2 364.5,139.1 365.5,144.0 366.6,143.8 367.7,141.6 368.7,142.2 369.8,142.6 370.8,140.1 371.9,139.8 372.9,135.1 374.0,133.1 375.1,128.6 376.1,127.5 377.2,122.2 378.2,122.6 379.3,120.2 380.4,120.6 381.4,113.0 382.5,108.7 383.5,100.4 384.6,94.5 385.7,97.1 386.7,101.0 387.8,100.1 388.8,94.0 389.9,85.6 391.0,79.3 392.0,88.4 393.1,83.7 394.1,78.2 395.2,79.3 396.3,80.4 397.3,78.5 398.4,77.6 399.4,80.2 400.5,85.4 401.5,79.9 402.6,78.9 403.7,87.4 404.7,98.2 405.8,97.3 406.8,97.1 407.9,93.8 409.0,97.2 410.0,98.4 411.1,97.7 412.1,98.8 413.2,101.6 414.3,97.6 415.3,93.0 416.4,89.6 417.4,86.9 418.5,85.1 419.6,85.5 420.6,83.3 421.7,87.7 422.7,86.7 423.8,90.1 424.9,86.0 425.9,81.2 427.0,76.8 428.0,77.2 429.1,76.9 430.1,75.7 431.2,74.5 432.3,78.6 433.3,79.5 434.4,85.1 435.4,84.5 436.5,87.2 437.6,84.0 438.6,86.6 439.7,91.2 440.7,90.2 441.8,96.6 442.9,95.0 443.9,90.8 445.0,91.0 446.0,94.5 447.1,95.2 448.2,94.5 449.2,95.0 450.3,91.8 451.3,87.1 452.4,87.4 453.4,91.0 454.5,93.2 455.6,93.5 456.6,94.4 457.7,99.0 458.7,102.2 459.8,103.4 460.9,104.5 461.9,103.9 463.0,108.1 464.0,118.0 465.1,117.1 466.2,120.3 467.2,117.4 468.3,117.5 469.3,114.4 470.4,113.2 471.5,113.5 472.5,111.6 473.6,116.2 474.6,119.7 475.7,119.0 476.8,115.8 477.8,120.1 478.9,121.3 479.9,120.8 481.0,120.0 482.0,120.4 483.1,119.8 484.2,117.8 485.2,117.3 486.3,126.5 487.3,126.7 488.4,126.3 489.5,124.8 490.5,124.8 491.6,125.6 492.6,125.4 493.7,125.9 494.8,124.9 495.8,117.4 496.9,114.2 497.9,112.5 499.0,113.8 500.1,115.8 501.1,111.6 502.2,112.8 503.2,114.7 504.3,115.1 505.4,106.3 506.4,106.4 507.5,106.1 508.5,105.9 509.6,103.4 510.6,106.9 511.7,104.7 512.8,105.8 513.8,107.8 514.9,108.1 515.9,106.2 517.0,107.6 518.1,109.2 519.1,108.7 520.2,103.2 521.2,103.0 522.3,103.6 523.4,103.5 524.4,103.7 525.5,104.7 526.5,105.0 527.6,104.7 528.7,108.9 529.7,109.0 530.8,109.2 531.8,109.4 532.9,108.4 534.0,108.8 535.0,106.4 536.1,106.4 537.1,107.5 538.2,103.8 539.2,98.5 540.3,97.9 541.4,95.8 542.4,95.5 543.5,95.4 544.5,93.0 545.6,89.6 546.7,91.7 547.7,90.2 548.8,90.9 549.8,89.4 550.9,91.3 552.0,91.5 553.0,91.1 554.1,90.6 555.1,85.9 556.2,83.0 557.3,83.3 558.3,75.8 559.4,72.5 560.4,72.8 561.5,73.5 562.6,71.3 563.6,72.3 564.7,74.3 565.7,74.8 566.8,75.9 567.8,75.3 568.9,76.9 570.0,74.0 571.0,72.8 572.1,73.2 573.1,72.2 574.2,73.8 575.3,75.8 576.3,76.1 577.4,80.4 578.4,77.3 579.5,73.0 580.6,72.9 581.6,79.0 582.7,78.6 583.7,78.7 584.8,75.1 585.9,79.5 586.9,81.1 588.0,78.3 589.0,75.5 590.1,74.4 591.1,76.0 592.2,76.0 593.3,72.5 594.3,73.1 595.4,72.7 596.4,66.7 597.5,62.6 598.6,59.3 599.6,59.6 600.7,58.1 601.7,57.0 602.8,60.5 603.9,61.1 604.9,59.2 606.0,60.7 607.0,58.2 608.1,57.6 609.2,59.5 610.2,59.9 611.3,60.1 612.3,60.0 613.4,60.8 614.5,66.7 615.5,65.8 616.6,64.2 617.6,65.9 618.7,67.8 619.7,65.3 620.8,64.6 621.9,61.0 622.9,60.8 624.0,57.1 625.0,56.2 626.1,55.3 627.2,56.5 628.2,56.5 629.3,56.6 630.3,58.2 631.4,55.6 632.5,55.3 633.5,52.0 634.6,52.6 635.6,51.9 636.7,53.6 637.8,52.0 638.8,52.6 639.9,53.9 640.9,55.6 642.0,54.6 643.1,53.2 644.1,53.2 645.2,54.3 646.2,50.7 647.3,53.3 648.3,55.5 649.4,53.5 650.5,54.8 651.5,56.9 652.6,60.8 653.6,63.9 654.7,62.4 655.8,62.4 656.8,63.3 657.9,63.1 658.9,63.5 660.0,63.2" fill="none" stroke="#aaa" stroke-width="1.5" clip-path="url(#btc-reveal)" />
  <polyline points="52.0,289.3 53.1,289.3 54.1,312.1 55.2,297.9 56.2,307.4 57.3,309.2 58.4,305.6 59.4,304.8 60.5,297.9 61.5,294.6 62.6,291.0 63.7,296.6 64.7,304.8 65.8,299.4 66.8,306.5 67.9,311.1 68.9,313.2 70.0,306.5 71.1,306.5 72.1,307.4 73.2,306.5 74.2,310.2 75.3,312.1 76.4,309.2 77.4,305.6 78.5,304.0 79.5,297.9 80.6,288.7 81.7,298.6 82.7,293.4 83.8,295.9 84.8,300.8 85.9,303.2 87.0,314.2 88.0,315.3 89.1,311.1 90.1,314.2 91.2,314.2 92.3,314.2 93.3,312.1 94.4,309.2 95.4,304.8 96.5,299.4 97.5,289.3 98.6,280.0 99.7,292.8 100.7,291.6 101.8,281.8 102.8,278.8 103.9,270.9 105.0,269.6 106.0,273.0 107.1,271.9 108.1,268.9 109.2,281.8 110.3,278.0 111.3,285.1 112.4,283.7 113.4,278.0 114.5,272.3 115.6,273.4 116.6,278.0 117.7,276.7 118.7,277.1 119.8,274.8 120.9,276.0 121.9,275.6 123.0,274.8 124.0,269.6 125.1,270.9 126.1,269.6 127.2,269.9 128.3,273.0 129.3,260.4 130.4,253.8 131.4,242.9 132.5,233.9 133.6,249.4 134.6,246.3 135.7,247.5 136.7,244.2 137.8,246.3 138.9,250.7 139.9,255.1 141.0,258.1 142.0,256.7 143.1,257.7 144.2,253.4 145.2,253.8 146.3,253.4 147.3,254.7 148.4,253.4 149.4,252.8 150.5,249.8 151.6,248.1 152.6,243.2 153.7,242.6 154.7,243.6 155.8,240.7 156.9,240.6 157.9,236.6 159.0,237.0 160.0,235.0 161.1,225.8 162.2,217.9 163.2,226.3 164.3,235.3 165.3,226.8 166.4,227.3 167.5,219.1 168.5,221.4 169.6,217.9 170.6,210.0 171.7,203.9 172.8,207.0 173.8,220.2 174.9,226.0 175.9,216.6 177.0,211.1 178.0,211.5 179.1,210.0 180.2,201.9 181.2,189.5 182.3,180.4 183.3,171.8 184.4,168.4 185.5,157.3 186.5,145.6 187.6,157.6 188.6,156.7 189.7,159.3 190.8,159.0 191.8,181.1 192.9,157.3 193.9,156.9 195.0,146.3 196.1,129.7 197.1,129.9 198.2,124.8 199.2,121.6 200.3,130.5 201.4,143.8 202.4,142.5 203.5,129.6 204.5,126.4 205.6,111.4 206.6,107.3 207.7,105.9 208.8,92.3 209.8,110.6 210.9,88.9 211.9,78.6 213.0,64.6 214.1,44.9 215.1,30.0 216.2,55.1 217.2,54.8 218.3,43.9 219.4,58.3 220.4,72.9 221.5,72.0 222.5,100.1 223.6,103.5 224.7,84.9 225.7,92.0 226.8,79.4 227.8,93.8 228.9,105.9 230.0,103.6 231.0,120.6 232.1,119.1 233.1,107.0 234.2,103.1 235.2,98.8 236.3,97.1 237.4,104.9 238.4,106.9 239.5,118.1 240.5,114.8 241.6,125.2 242.7,128.7 243.7,133.0 244.8,130.8 245.8,126.5 246.9,131.4 248.0,120.3 249.0,113.1 250.1,124.7 251.1,133.5 252.2,131.4 253.3,129.3 254.3,123.4 255.4,134.6 256.4,132.1 257.5,130.0 258.6,131.1 259.6,131.4 260.7,135.2 261.7,133.0 262.8,133.0 263.8,134.4 264.9,134.0 266.0,144.4 267.0,171.5 268.1,169.7 269.1,180.4 270.2,188.5 271.3,173.8 272.3,176.8 273.4,173.1 274.4,183.8 275.5,183.0 276.6,183.4 277.6,186.0 278.7,181.6 279.7,181.9 280.8,179.5 281.9,178.8 282.9,176.9 284.0,175.6 285.0,175.7 286.1,174.2 287.1,157.5 288.2,158.1 289.3,156.1 290.3,156.7 291.4,150.0 292.4,136.7 293.5,125.2 294.6,121.4 295.6,121.0 296.7,131.0 297.7,119.7 298.8,106.3 299.9,108.1 300.9,104.5 302.0,113.6 303.0,112.5 304.1,120.5 305.2,110.4 306.2,107.1 307.3,115.6 308.3,117.4 309.4,120.4 310.5,115.5 311.5,116.3 312.6,118.4 313.6,135.5 314.7,136.7 315.7,133.8 316.8,134.8 317.9,125.6 318.9,128.2 320.0,129.7 321.0,133.9 322.1,149.1 323.2,145.3 324.2,144.0 325.3,148.3 326.3,145.1 327.4,146.1 328.5,146.4 329.5,139.1 330.6,134.8 331.6,135.9 332.7,129.8 333.8,124.0 334.8,125.5 335.9,125.9 336.9,137.2 338.0,142.0 339.1,189.1 340.1,184.5 341.2,184.5 342.2,174.5 343.3,172.8 344.3,170.7 345.4,166.0 346.5,155.5 347.5,157.7 348.6,150.5 349.6,157.8 350.7,152.4 351.8,150.5 352.8,153.6 353.9,154.3 354.9,155.7 356.0,156.3 357.1,154.7 358.1,155.5 359.2,149.9 360.2,142.1 361.3,138.1 362.4,136.8 363.4,138.4 364.5,138.2 365.5,148.6 366.6,148.4 367.7,144.1 368.7,145.5 369.8,146.2 370.8,141.5 371.9,140.9 372.9,131.6 374.0,127.8 375.1,119.2 376.1,117.1 377.2,106.7 378.2,108.1 379.3,103.7 380.4,104.7 381.4,89.9 382.5,82.0 383.5,66.0 384.6,54.8 385.7,61.1 386.7,69.8 387.8,68.5 388.8,56.7 389.9,41.0 391.0,29.1 392.0,48.1 393.1,39.3 394.1,28.4 395.2,31.0 396.3,33.5 397.3,29.9 398.4,28.2 399.4,34.1 400.5,44.7 401.5,34.3 402.6,32.7 403.7,50.9 404.7,75.2 405.8,74.0 406.8,74.1 407.9,68.4 409.0,75.5 410.0,78.5 411.1,77.4 412.1,79.9 413.2,85.5 414.3,78.2 415.3,69.2 416.4,62.6 417.4,57.6 418.5,54.3 419.6,55.2 420.6,51.1 421.7,60.4 422.7,58.7 423.8,66.2 424.9,58.5 425.9,49.2 427.0,40.8 428.0,41.8 429.1,41.5 430.1,39.3 431.2,37.0 432.3,45.5 433.3,47.5 434.4,59.5 435.4,58.6 436.5,64.2 437.6,58.1 438.6,63.6 439.7,72.9 440.7,70.9 441.8,84.5 442.9,81.2 443.9,73.5 445.0,74.0 446.0,81.5 447.1,83.1 448.2,82.8 449.2,84.4 450.3,78.2 451.3,68.9 452.4,69.6 453.4,77.0 454.5,81.8 455.6,82.4 456.6,84.6 457.7,94.3 458.7,101.7 459.8,104.4 460.9,106.8 461.9,106.0 463.0,115.1 464.0,136.8 465.1,135.3 466.2,141.8 467.2,136.2 468.3,136.8 469.3,130.8 470.4,128.8 471.5,129.4 472.5,125.9 473.6,135.4 474.6,142.8 475.7,141.5 476.8,135.7 477.8,144.8 478.9,147.5 479.9,146.6 481.0,145.2 482.0,146.0 483.1,144.9 484.2,141.1 485.2,140.1 486.3,160.8 487.3,161.2 488.4,160.6 489.5,157.7 490.5,157.9 491.6,159.6 492.6,159.3 493.7,160.4 494.8,158.4 495.8,143.9 496.9,137.8 497.9,134.5 499.0,137.3 500.1,141.4 501.1,133.6 502.2,136.1 503.2,139.9 504.3,141.3 505.4,124.5 506.4,124.8 507.5,124.4 508.5,124.1 509.6,119.2 510.6,126.5 511.7,122.2 512.8,124.5 513.8,128.7 514.9,129.3 515.9,125.9 517.0,128.6 518.1,132.3 519.1,131.3 520.2,120.6 521.2,120.4 522.3,121.6 523.4,121.6 524.4,122.0 525.5,124.2 526.5,124.9 527.6,124.3 528.7,133.0 529.7,133.4 530.8,134.0 531.8,134.5 532.9,132.6 534.0,133.5 535.0,128.8 536.1,129.1 537.1,131.3 538.2,124.1 539.2,113.9 540.3,112.9 541.4,108.8 542.4,108.5 543.5,108.5 544.5,103.9 545.6,97.3 546.7,101.9 547.7,99.1 548.8,100.5 549.8,97.9 550.9,102.3 552.0,102.9 553.0,102.3 554.1,101.4 555.1,92.2 556.2,86.7 557.3,87.3 558.3,72.9 559.4,66.8 560.4,67.7 561.5,69.7 562.6,65.4 563.6,67.8 564.7,72.2 565.7,73.4 566.8,75.6 567.8,75.0 568.9,78.2 570.0,72.9 571.0,70.7 572.1,71.6 573.1,69.6 574.2,73.1 575.3,77.2 576.3,78.0 577.4,86.9 578.4,80.7 579.5,72.5 580.6,72.5 581.6,85.3 582.7,85.4 583.7,85.8 584.8,79.0 585.9,87.9 586.9,91.4 588.0,85.8 589.0,80.5 590.1,78.3 591.1,81.8 592.2,81.9 593.3,75.1 594.3,76.4 595.4,75.7 596.4,64.3 597.5,56.5 598.6,50.1 599.6,50.9 600.7,48.1 601.7,46.2 602.8,53.3 603.9,54.8 604.9,51.1 606.0,54.4 607.0,49.5 608.1,48.4 609.2,52.4 610.2,53.5 611.3,53.9 612.3,53.9 613.4,56.1 614.5,68.9 615.5,67.3 616.6,64.4 617.6,67.9 618.7,72.0 619.7,67.4 620.8,66.2 621.9,59.2 622.9,58.9 624.0,51.7 625.0,50.1 626.1,48.4 627.2,50.8 628.2,50.9 629.3,51.2 630.3,54.6 631.4,49.5 632.5,49.0 633.5,42.6 634.6,43.9 635.6,42.6 636.7,46.0 637.8,42.8 638.8,44.2 639.9,46.9 640.9,50.6 642.0,48.6 643.1,45.9 644.1,46.0 645.2,48.3 646.2,41.2 647.3,46.7 648.3,51.1 649.4,47.4 650.5,50.0 651.5,54.4 652.6,62.6 653.6,69.0 654.7,66.0 655.8,66.3 656.8,68.4 657.9,68.1 658.9,68.8 660.0,68.4" fill="none" stroke="rgb(208,144,80)" stroke-width="2" clip-path="url(#btc-reveal)" />
  <g>
    <animate attributeName="opacity" dur="20s" repeatCount="indefinite"
             values="0;0;1;1;0;0" keyTimes="0;0.5;0.525;0.85;0.875;1" />
    <text x="668" y="58.2" font-size="12" font-weight="600" fill="#aaa">$281</text>
    <text x="668" y="77.4" font-size="12" font-weight="600" fill="rgb(208,144,80)">$245</text>
  </g>
  </g>
  <g transform="translate(62, 36)">
    <line x1="0" y1="0" x2="16" y2="0" stroke="#aaa" stroke-width="1.5" />
    <text x="22" y="4" font-size="11" fill="#757575">BTC (1x)</text>
    <line x1="0" y1="16" x2="16" y2="16" stroke="rgb(208,144,80)" stroke-width="2" />
    <text x="22" y="20" font-size="11" fill="#757575">2x BTC LETF</text>
  </g>
</svg>