<svg viewBox="0 0 500 473" xmlns="http://www.w3.org/2000/svg" font-family="system-ui, sans-serif" style="max-width:500px; width:100%; height:auto;">
  <defs>
    <marker id="hp-arr" viewBox="0 0 10 10" refX="9" refY="5" markerWidth="6" markerHeight="6" orient="auto">
      <path d="M 0 0 L 10 5 L 0 10 z" fill="#94a3b8"/>
    </marker>
  </defs>
  <rect x="50" y="392" width="400" height="55" rx="6" fill="#eff6ff" stroke="#3b82f6"/>
  <text x="250" y="416" text-anchor="middle" font-size="14" font-weight="600">Saver / household</text>
  <text x="250" y="434" text-anchor="middle" font-size="11" fill="#64748b">demand-redeemable claim, no maturity</text>
  <line x1="250" y1="389" x2="250" y2="359" stroke="#94a3b8" stroke-width="1.5" marker-end="url(#hp-arr)"/>
  <text x="265" y="379" font-size="10" fill="#94a3b8" font-style="italic">duration risk</text>
  <rect x="50" y="299" width="400" height="55" rx="6" fill="#dbeafe" stroke="#3b82f6"/>
  <text x="250" y="323" text-anchor="middle" font-size="14" font-weight="600">Commercial bank</text>
  <text x="250" y="341" text-anchor="middle" font-size="11" fill="#64748b">long assets, demand liabilities, equity buffer</text>
  <line x1="250" y1="296" x2="250" y2="266" stroke="#94a3b8" stroke-width="1.5" marker-end="url(#hp-arr)"/>
  <text x="265" y="286" font-size="10" fill="#94a3b8" font-style="italic">duration risk</text>
  <rect x="50" y="206" width="400" height="55" rx="6" fill="#cfe4fc" stroke="#3b82f6"/>
  <text x="250" y="230" text-anchor="middle" font-size="14" font-weight="600">FDIC / deposit insurance</text>
  <text x="250" y="248" text-anchor="middle" font-size="11" fill="#64748b">guarantees deposits up to $250k</text>
  <line x1="250" y1="203" x2="250" y2="173" stroke="#94a3b8" stroke-width="1.5" marker-end="url(#hp-arr)"/>
  <text x="265" y="193" font-size="10" fill="#94a3b8" font-style="italic">duration risk</text>
  <rect x="50" y="113" width="400" height="55" rx="6" fill="#bfdbfe" stroke="#3b82f6"/>
  <text x="250" y="137" text-anchor="middle" font-size="14" font-weight="600">Central bank</text>
  <text x="250" y="155" text-anchor="middle" font-size="11" fill="#64748b">long assets, demand liabilities</text>
  <line x1="250" y1="110" x2="250" y2="80" stroke="#94a3b8" stroke-width="1.5" marker-end="url(#hp-arr)"/>
  <text x="265" y="100" font-size="10" fill="#94a3b8" font-style="italic">duration risk</text>
  <rect x="50" y="20" width="400" height="55" rx="6" fill="#fecaca" stroke="#dc2626"/>
  <text x="250" y="44" text-anchor="middle" font-size="14" font-weight="600">Currency holder</text>
  <text x="250" y="62" text-anchor="middle" font-size="11" fill="#64748b">no backstop above — bears the residual via inflation</text>
</svg>